<svg id="Layer_3" data-name="Layer 3" xmlns="http://www.w3.org/2000/svg" viewBox="0 0 174.63 184.11"><defs><style>.cls-1{fill:#c10000;}</style></defs><title>A-Red</title><path class="cls-1" d="M765.48,570.07q-13.28-3.82-20-14.28t-6.06-24.57q-1.49-6.06-2.91-12t-2.82-11.91a36,36,0,0,0-18.51,4.57q-5.73,1.74-12.08,3.24a29.25,29.25,0,0,0-11,5q-8.63,3.49-11.66,4.9t-12.58,6.47q-1,5.15-2,10.42t-2,10.58a20.25,20.25,0,0,1-8.38,8.67q-5.65,3.2-11-2.2a40,40,0,0,1-2.2-5.15q-.54-1.74-2.12-9-4.65-3.82-6.1-7.51t1-9.67q2.57-2.16,8.05-6,2.24-6.72,4.48-13.41T652.09,495q2.82-5.48,5.27-11.66a47.85,47.85,0,0,1,6.18-11.16,221.72,221.72,0,0,1,14.36-27.89q8.3-13.7,16.93-26.73a43.64,43.64,0,0,1,3.28-13.82,99,99,0,0,1,6.52-12.91,4.87,4.87,0,0,1,4.32,2.24,23.93,23.93,0,0,1,5.23.54q2.41.54,5.06,1a6.32,6.32,0,0,1,4.11-.54q1.87.46,4.36.87,3.24-3.49,5.23-5.94t6.72-3.11q6.72,5.4,1.83,9t-8.88,6.85a7.06,7.06,0,0,0,3,4.07,23.87,23.87,0,0,0,7.3,15.77q1.25,4.32,2.61,9.5a16.89,16.89,0,0,0,4.52,8.18q2,8,4.07,16.1t4.32,16.27a98.06,98.06,0,0,0,2.86,15.15q2.28,8.84,5.6,13.9,7.3,2.74,14.4,5a105.63,105.63,0,0,0,14.65,3.49,44.57,44.57,0,0,1,9.75,6.35q3,2.86,2.28,9.92-6,4-10.5,1.49t-6.93-8.8q-5.15-2.24-10.25-4.32l-10.17-4.15-.83.83A59.16,59.16,0,0,0,780.5,532.3a48.88,48.88,0,0,1-.12,16.89A52.83,52.83,0,0,1,775,565.26a50.93,50.93,0,0,1-4.44,2.86A45.91,45.91,0,0,1,765.48,570.07ZM670,511.88q15.11-5,30.59-8.72A133.48,133.48,0,0,1,732,499.43q-.17-1.25-2.08-7.93t-4.36-14.65q-2.45-8-4.77-15.15t-3.15-9.34q-3.07-3.65-6.23-11.5T704.05,433q-.58,2.24-2.16,2.24l-7.8,12.29q-3.9,6.14-7.72,12.45h-1.08q-1.49,4.48-2.91,9t-2.82,9.17A96.71,96.71,0,0,0,670,511.88Z" transform="translate(-633.5 -385.96)"/></svg>