<svg id="Layer_1" data-name="Layer 1" xmlns="http://www.w3.org/2000/svg" viewBox="0 0 556.82 345.54"><defs><style>.cls-1{fill:#c70000;}</style></defs><title>Aspire</title><path d="M576.69,587.4a10.07,10.07,0,0,0-2.94-3c-3.21-1.56-6.9-1.6-10.16-2.94h-.09a7.64,7.64,0,0,1-5.18-2.25,7.21,7.21,0,0,1-2.91-1.62c-2-1.88-1.68-4.3-.45-6.35a1.38,1.38,0,0,1,.09-.68,6.74,6.74,0,0,1,5.32-4.32c.29-.2.58-.39.87-.58a1.37,1.37,0,0,1,2,.59,9.42,9.42,0,0,1,1.14.26,1.42,1.42,0,0,1,.94.82c.93,1.25,1.95,2.54,3,3.87s2.34,2.78,3.56,4.15h3.38a18.65,18.65,0,0,0,3.38-11q-9.86-14.36-24.38-7t-18.72,19.88a20.77,20.77,0,0,0,9.08,12.65q7.17,4.79,13.47,9.4-1.1,5.22-2,10.77-5.94,6-10.14,10.69a44.36,44.36,0,0,1-4.15,3.16,7.42,7.42,0,0,0-2.6,4.1,31.5,31.5,0,0,0,2.74,3.76,12.17,12.17,0,0,0,3.1-1.07q1.19-.64,6.3-4,8.95-10.17,23.56-15.13a16.88,16.88,0,0,0,3.52-6.33c.29-1,.63-1.9,1-2.81.18-2.58.17-5.2.43-7.77A54.73,54.73,0,0,0,576.69,587.4Z" transform="translate(-358.84 -450.96)"/><path d="M689.28,579.23q-.17-2.95-.17-5.77a65.35,65.35,0,0,1-4.9-7.3q-2.74-1.58-5.31-3t-5.06-2.82a36.87,36.87,0,0,0-19.34.17q-9,2.66-18.59,6.56-8.55,6-10.33,7.14a23.81,23.81,0,0,1-4,2.08q.66-2.07,1.33-3.94t1.41-3.78a68.8,68.8,0,0,1-2.16-7.89q-7.72-5.06-13.2-3.11a18.34,18.34,0,0,0-9.13,7.39,43,43,0,0,0-5.64,12.66,88.81,88.81,0,0,0-2.66,12.7q.66,12.45,1.54,24.86t1.87,24.94l0,.08a22.65,22.65,0,0,1,1.13,7.16l.38.4q0,5,.21,10.08t.46,10.42a397.7,397.7,0,0,0-4.32,57.86q2.32,11.12,4.9,21.42,2,6.64,4.11,13.32t4.44,13.57q2.24,3.9,4.57,7.8l4.65,7.8q2,1.58,4.11,3.2T624,796.5q10-4,6.72-12.83t-5.81-16q.41-6.23,1.08-11.41a28.06,28.06,0,0,1,4.15-10.92,48.6,48.6,0,0,1,2.32-9.79q1.91-5.81,3.74-14-.91-6-2.28-13.32a69.82,69.82,0,0,0-3.2-12.08q-1-9.71-1.78-13.24T627,673.15q-.75-12.7-1.25-25.44T624,622.43a23.7,23.7,0,0,1,5.23-.58q10,3.9,24.61-5.44T676,601.35q3.4-4.15,6.81-8.22t6.89-8.05Q689.45,582.17,689.28,579.23Zm-20.67,6.85q-2.57,2.08-5.06,4.15t-5,4.07q-5.56,2.32-11.41,4.65a111.55,111.55,0,0,1-11.58,3.9q-1.3-1.91-1.49-2.17a69.26,69.26,0,0,1,10-18.66q5.73-7.22,16.52-13.45,9.88.75,11,5.35T668.61,586.08Z" transform="translate(-358.84 -450.96)"/><path d="M707.79,512.36a30,30,0,0,0,14.15-4.9q6.43-4.23,2.12-13.2a15.78,15.78,0,0,0-13.9.46,28.2,28.2,0,0,0-10.58,9.67q.83,4.4,2.32,5.85T707.79,512.36Z" transform="translate(-358.84 -450.96)"/><path d="M730.44,589.44l0,0a11.21,11.21,0,0,0-.89-9.69,38.41,38.41,0,0,0-9.84-11.41A50.14,50.14,0,0,0,704.22,573q-6.31,3.28-9.3,12.49a139.83,139.83,0,0,0,1.62,27q2.2,14.82,13.74,21.87a28.52,28.52,0,0,1,2.91-1.58l3.15-1.49q3.24-5.73,3.07-16.31c-.06-3.54.65-6.16,2.09-7.92C721.61,600.24,725.52,594,730.44,589.44Z" transform="translate(-358.84 -450.96)"/><path d="M811.93,585.2q-2.53-2.78-4.77-5.6a42,42,0,0,0-23.45-.12,50.77,50.77,0,0,0-20,11.5,7.22,7.22,0,0,0-2.41-.33q-8.3-9-12.33-7.76-3.13.94-8.39,6.41c-.89,2.67-1.73,5.35-2.74,8a1.31,1.31,0,0,1,.12.74c-.32,2.87-.06,6.06-.61,9a23.79,23.79,0,0,1,.72,8.06q1.15,3.69,2.31,7,2.24,6.43,9,11.41a20.85,20.85,0,0,1,5.4-.83,26.83,26.83,0,0,0,5-.42q1.16-2.49,2.32-5t2.57-5q.41-7.8,1.62-17t11.58-11.79q3.49,4.4,9.79,11,2.24,1.66,4.73,3.24t5.06,3.15a32.23,32.23,0,0,0,7.76-.91,25.45,25.45,0,0,1,5.35-.91q5.23-3.15,5.81-7.72a82.27,82.27,0,0,0,.58-10.29Q814.46,588,811.93,585.2Z" transform="translate(-358.84 -450.96)"/><path d="M911.08,568.73a98.9,98.9,0,0,0-10,12.53q-5.31,7.72-11.33,15.07A81.77,81.77,0,0,1,877,608.94a24.32,24.32,0,0,1-9.36,4.69,8.42,8.42,0,0,1-2.7,1.17c-1.83,1.27-3.7,2.12-5.82,1.46a3.72,3.72,0,0,1-.55.35,30.16,30.16,0,0,1-5.73-2.7,10.77,10.77,0,0,1-4.15-4.86,18.63,18.63,0,0,1,6.64-5.56q6.47-5.81,13.24-11.66T882.11,580a8.88,8.88,0,0,1,1.16-2.91h.45a31.31,31.31,0,0,1,2.48-4.87,1.5,1.5,0,0,1,.7-.57q1-2.08,3-6.1a12.11,12.11,0,0,0-2.16-9.46,18.36,18.36,0,0,0-7.72-6q-4.15-5.56-7.1-3.36a25.79,25.79,0,0,1-7.68,3.69,152.43,152.43,0,0,0-33.62,41.17,16.65,16.65,0,0,1-3.53-1.25q-1-.58-4.86-3.4-6.47,1.33-9.46,5.48a37.37,37.37,0,0,0-5,10.21q1.33,1.08,2.66,2.2a31.31,31.31,0,0,0,2.82,2.12,11.63,11.63,0,0,0,4.52,1.12,53.52,53.52,0,0,1,7.26,1.2,73.17,73.17,0,0,0,1.49,16.6q1.49,6.14,12.45,9.13a49.4,49.4,0,0,0,6.27-1.12q2.78-.7,16.06-4.86a73,73,0,0,1,11.37-9.21q6.39-4.23,12.12-8.8,10.87-11.7,16.52-18.76T912.82,580a25.32,25.32,0,0,0,2.7-7.35Q916.47,568.31,911.08,568.73Zm-60.55,14.73a22.71,22.71,0,0,1,1.59-4.87c-.4-6.81,6.81-13,12.9-15.19l4.88-3.06a16.16,16.16,0,0,1,8.72-2.32c0,.19.1.37.16.56a4.11,4.11,0,0,1,1.78,1.36A1.86,1.86,0,0,1,881,561l.55.15a15.31,15.31,0,0,1-2.7,8.22q-2.7,4.23-4.86,7.47a96.84,96.84,0,0,0-12.74,10.5,41.24,41.24,0,0,1-13.07,8.92Q848.82,591.3,850.53,583.46Z" transform="translate(-358.84 -450.96)"/><path d="M490.82,635.07q-13.28-3.82-20-14.28t-6.06-24.57q-1.49-6.06-2.91-12T459,572.32a36,36,0,0,0-18.51,4.57q-5.73,1.74-12.08,3.24a29.25,29.25,0,0,0-11,5q-8.63,3.49-11.66,4.9t-12.58,6.47q-1,5.15-2,10.42t-2,10.58a20.25,20.25,0,0,1-8.38,8.67q-5.65,3.2-11-2.2a40,40,0,0,1-2.2-5.15q-.54-1.74-2.12-9-4.65-3.82-6.1-7.51t1-9.67q2.57-2.16,8.05-6,2.24-6.72,4.48-13.41T377.43,560q2.82-5.48,5.27-11.66a47.85,47.85,0,0,1,6.18-11.16,221.72,221.72,0,0,1,14.36-27.89q8.3-13.7,16.93-26.73a43.64,43.64,0,0,1,3.28-13.82A99,99,0,0,1,430,455.86a4.87,4.87,0,0,1,4.32,2.24,23.93,23.93,0,0,1,5.23.54q2.41.54,5.06,1a6.32,6.32,0,0,1,4.11-.54q1.87.46,4.36.87,3.24-3.49,5.23-5.94T465,451q6.72,5.4,1.83,9t-8.88,6.85a7.06,7.06,0,0,0,3,4.07,23.87,23.87,0,0,0,7.3,15.77q1.25,4.32,2.61,9.5a16.89,16.89,0,0,0,4.52,8.18q2,8,4.07,16.1t4.32,16.27a98.06,98.06,0,0,0,2.86,15.15q2.28,8.84,5.6,13.9,7.3,2.74,14.4,5a105.63,105.63,0,0,0,14.65,3.49,44.57,44.57,0,0,1,9.75,6.35q3,2.86,2.28,9.92-6,4-10.5,1.49t-6.93-8.8q-5.15-2.24-10.25-4.32l-10.17-4.15-.83.83a59.16,59.16,0,0,0,11.21,21.75,48.88,48.88,0,0,1-.12,16.89,52.83,52.83,0,0,1-5.35,16.06,50.93,50.93,0,0,1-4.44,2.86A45.91,45.91,0,0,1,490.82,635.07Zm-95.46-58.19q15.11-5,30.59-8.72a133.48,133.48,0,0,1,31.42-3.74q-.17-1.25-2.08-7.93t-4.36-14.65q-2.45-8-4.77-15.15T443,517.37q-3.07-3.65-6.23-11.5T429.39,498q-.58,2.24-2.16,2.24l-7.8,12.29q-3.9,6.14-7.72,12.45h-1.08q-1.49,4.48-2.91,9t-2.82,9.17A96.71,96.71,0,0,0,395.36,576.88Z" transform="translate(-358.84 -450.96)"/><path class="cls-1" d="M724.85,491.72c-2.11-2.67-6.27-1.6-12.49,0-6.87,1.77-12.39,3.19-13.73,7.56-1.68,5.46,4.08,12.46,7.12,17,4.35.52,9.87.48,14.11-3.39C725.73,507.52,728.06,495.78,724.85,491.72Z" transform="translate(-358.84 -450.96)"/><polyline class="cls-1" points="344.99 64.23 343.16 61.9 341.49 59.73 340.16 57.23 339.49 55.73 339.49 51.56 346.91 65.32"/><path d="M564.39,560.1a6,6,0,0,0-5,1,1.51,1.51,0,0,0,.76,2.8l4.25.26-.4-2.95a4.5,4.5,0,0,1-2.36.31l.76,2.8a.44.44,0,0,1,.59.09l1.46-2.51-3.15-.45c-1.27-.18-2.79,1.45-1.46,2.51a6.59,6.59,0,0,0,4.34,1.55l-.4-2.95a6.38,6.38,0,0,1-3.37.34l.36,2.74a4.71,4.71,0,0,1,4.74-.2v-2.59a6,6,0,0,1-4.5.55l1,1.85-.39.17c1.73.85,3.25-1.74,1.51-2.59a2.79,2.79,0,0,0-4,1.62,1.51,1.51,0,0,0,1,1.85,9.13,9.13,0,0,0,6.81-.85,1.51,1.51,0,0,0,0-2.59,7.79,7.79,0,0,0-7.77.2c-1,.62-1,2.5.36,2.74a9.42,9.42,0,0,0,5-.34c1.52-.54,1.38-3-.4-2.95a3.35,3.35,0,0,1-2.22-.67l-1.46,2.51,3.15.45c1.35.19,2.67-1.37,1.46-2.51a3.52,3.52,0,0,0-4.23-.56c-1.45.77-.59,2.64.76,2.8a6.39,6.39,0,0,0,3.15-.42,1.51,1.51,0,0,0-.4-2.95l-4.25-.26.76,2.8a3.13,3.13,0,0,1,2.68-.69c1.88.41,2.69-2.48.8-2.89Z" transform="translate(-358.84 -450.96)"/><path d="M880.72,579.71a24.38,24.38,0,0,0,6.41-14.87l-2.56,1.06c2.07,2.53-2.16,5.58-3.6,7a9.46,9.46,0,0,0-2.78,4.69,1.51,1.51,0,0,0,1.45,1.9c6.75-.64,9.36-10.86,9.43-16.4,0-1.93-2.95-1.93-3,0L886,565c-.05,1.93,2.95,1.93,3,0l.05-1.88h-3c0,3.45-1.9,13-6.43,13.4l1.45,1.9c.78-3.49,4.68-5,6.19-8.2a5.63,5.63,0,0,0-.58-6.44c-.9-1.1-2.47-.1-2.56,1.06a21,21,0,0,1-5.53,12.74c-1.3,1.42.82,3.55,2.12,2.12Z" transform="translate(-358.84 -450.96)"/><path d="M880.87,580.29l2.87-6.06c.82-1.74-1.76-3.26-2.59-1.51l-2.87,6.06c-.82,1.74,1.76,3.26,2.59,1.51Z" transform="translate(-358.84 -450.96)"/><path d="M879.35,580.69c6.54-1.38,8.32-10.43,10.35-15.69.7-1.8-2.2-2.58-2.89-.8-1.59,4.11-3.17,12.52-8.26,13.59-1.89.4-1.09,3.29.8,2.89Z" transform="translate(-358.84 -450.96)"/><path d="M884.42,576a39.27,39.27,0,0,0,5.79-10.89l-2.95-.4a15.61,15.61,0,0,1-11.13,14c-1.85.55-1.06,3.45.8,2.89a18.69,18.69,0,0,0,13.33-16.91c.1-1.77-2.42-1.92-2.95-.4a36.78,36.78,0,0,1-5.49,10.18c-1.16,1.54,1.44,3,2.59,1.51Z" transform="translate(-358.84 -450.96)"/><path d="M874.17,581.62a27.74,27.74,0,0,1,2.42-3q.58-.62,1.19-1.21l.78-.72.28-.25q.36-.26-.27,0l-.9-.69.07.13-.15-1.16,1.05-.79,1.45,1.1,0-.12c-.55-1.85-3.45-1.06-2.89.8l0,.12a1.56,1.56,0,0,0,1.45,1.1,1.84,1.84,0,0,0,1.84-2.21,2,2,0,0,0-2.91-1,13.62,13.62,0,0,0-3.12,2.82,33.2,33.2,0,0,0-2.89,3.62c-1.11,1.59,1.49,3.09,2.59,1.51Z" transform="translate(-358.84 -450.96)"/><path d="M873.8,582.37a10.8,10.8,0,0,1,5-7,1.5,1.5,0,0,0-1.51-2.59,13.81,13.81,0,0,0-6.4,8.75c-.44,1.88,2.46,2.68,2.89.8Z" transform="translate(-358.84 -450.96)"/></svg>